<?xml version="1.0" encoding="iso-8859-1"?>
<!-- Generator: Adobe Illustrator 17.1.0, SVG Export Plug-In . SVG Version: 6.00 Build 0)  -->
<!DOCTYPE svg PUBLIC "-//W3C//DTD SVG 1.1//EN" "http://www.w3.org/Graphics/SVG/1.1/DTD/svg11.dtd">
<svg version="1.1" id="Capa_1" xmlns="http://www.w3.org/2000/svg" xmlns:xlink="http://www.w3.org/1999/xlink" x="0px" y="0px"
	 viewBox="0 0 174.3 174.3" style="enable-background:new 0 0 174.3 174.3;" xml:space="preserve">
<path d="M9.022,16.249V5c0-2.761,2.238-5,5-5h105.151c2.762,0,5,2.239,5,5v11.249c0,2.761-2.238,5-5,5H14.022
	C11.26,21.249,9.022,19.01,9.022,16.249z M115.402,45.335V34.086c0-2.761-2.238-5-5-5H5.25c-2.762,0-5,2.239-5,5v11.249
	c0,2.761,2.238,5,5,5h105.151C113.164,50.335,115.402,48.096,115.402,45.335z M118.99,74.42V63.172c0-2.761-2.238-5-5-5H8.838
	c-2.762,0-5,2.239-5,5V74.42c0,2.761,2.238,5,5,5H113.99C116.751,79.42,118.99,77.182,118.99,74.42z M17.022,108.506h59.913
	c3.245-8.221,8.393-15.486,14.907-21.249H17.022c-2.762,0-5,2.239-5,5v11.249C12.022,106.268,14.26,108.506,17.022,108.506z
	 M21.022,116.343c-2.762,0-5,2.239-5,5v11.249c0,2.761,2.238,5,5,5h52.751c-0.457-2.862-0.702-5.793-0.702-8.782
	c0-4.287,0.505-8.457,1.43-12.467H21.022z M75.616,145.429H17.022c-2.762,0-5,2.239-5,5v11.249c0,2.761,2.238,5,5,5h71.031
	C82.443,160.68,78.138,153.448,75.616,145.429z M113.556,116.206c0,3.839,3.12,6.959,6.955,6.959h3.049v-13.914h-3.049
	C116.676,109.251,113.556,112.371,113.556,116.206z M133.56,147.078h3.048c3.836,0,6.957-3.121,6.957-6.957
	s-3.121-6.957-6.957-6.957h-3.048V147.078z M174.049,128.811c0,25.083-20.406,45.489-45.489,45.489s-45.489-20.406-45.489-45.489
	s20.406-45.489,45.489-45.489S174.049,103.728,174.049,128.811z M133.56,123.165v-13.914h15.005c2.762,0,5-2.239,5-5s-2.238-5-5-5
	H133.56v-1.957c0-2.761-2.238-5-5-5s-5,2.239-5,5v1.957h-3.049c-9.349,0-16.955,7.606-16.955,16.959
	c0,9.349,7.606,16.955,16.955,16.955h3.049v13.913h-15.004c-2.762,0-5,2.239-5,5s2.238,5,5,5h15.004v3.248c0,2.761,2.238,5,5,5
	s5-2.239,5-5v-3.248h3.048c9.351,0,16.957-7.606,16.957-16.957s-7.606-16.957-16.957-16.957H133.56z"/>
<g>
</g>
<g>
</g>
<g>
</g>
<g>
</g>
<g>
</g>
<g>
</g>
<g>
</g>
<g>
</g>
<g>
</g>
<g>
</g>
<g>
</g>
<g>
</g>
<g>
</g>
<g>
</g>
<g>
</g>
</svg>
